<svg width="14" height="15" viewBox="0 0 14 15" fill="none" xmlns="http://www.w3.org/2000/svg">
<path d="M6.97609 0.302734C5.34767 0.313786 3.7737 0.888369 2.52344 1.92819C1.27318 2.96801 0.424311 4.40846 0.122059 6.00311C-0.180194 7.59776 0.0829485 9.24753 0.86647 10.6702C1.64999 12.0928 2.9052 13.2 4.41738 13.8022C4.31575 13.1394 4.31575 12.4651 4.41738 11.8023L5.2452 8.30243C5.11419 7.98546 5.04932 7.64523 5.05455 7.30247C5.05455 6.3325 5.62148 5.60253 6.32387 5.60253C6.45111 5.60063 6.57727 5.62615 6.69369 5.67736C6.81011 5.72856 6.91405 5.80424 6.99839 5.89921C7.08273 5.99418 7.14547 6.1062 7.18232 6.22758C7.21917 6.34897 7.22926 6.47686 7.21189 6.60249C7.21189 7.20247 6.8306 8.10244 6.62991 8.93241C6.58672 9.08719 6.58158 9.25006 6.61494 9.40724C6.6483 9.56442 6.71916 9.71127 6.82154 9.83537C6.92392 9.95947 7.0548 10.0572 7.20309 10.1202C7.35138 10.1832 7.51273 10.2097 7.67346 10.1974C8.9177 10.1974 9.88098 8.88241 9.88098 6.99248C9.89349 6.60844 9.82554 6.22601 9.68146 5.8696C9.53738 5.51319 9.32034 5.19062 9.04418 4.92247C8.76802 4.65431 8.43881 4.44647 8.07755 4.31219C7.71629 4.17791 7.3309 4.12015 6.94599 4.14259C6.53504 4.125 6.12478 4.19069 5.74004 4.33569C5.35531 4.48069 5.0041 4.70198 4.70767 4.98617C4.41124 5.27036 4.17576 5.61154 4.01548 5.98905C3.8552 6.36656 3.77346 6.77256 3.77519 7.18247C3.76961 7.75352 3.94521 8.31173 4.2769 8.77741C4.30102 8.80413 4.3182 8.83633 4.32695 8.87119C4.33569 8.90605 4.33574 8.94252 4.32707 8.9774C4.27188 9.1974 4.15147 9.67738 4.13141 9.77237C4.11134 9.86737 4.02605 9.92737 3.8956 9.86737C3.01761 9.45739 2.47075 8.18243 2.47075 7.15247C2.47075 4.94756 4.08124 2.91763 7.11155 2.91763C9.54484 2.91763 11.4413 4.64757 11.4413 6.96248C11.4413 9.37239 9.93617 11.3123 7.79387 11.3123C7.47981 11.3232 7.168 11.2557 6.88675 11.116C6.6055 10.9763 6.36373 10.7688 6.18339 10.5123L5.74691 12.1773C5.53767 12.8243 5.24417 13.4412 4.87393 14.0122C5.55615 14.2131 6.26476 14.3109 6.97609 14.3022C8.83895 14.3022 10.6255 13.5647 11.9427 12.252C13.26 10.9393 14 9.15891 14 7.30247C14 5.44602 13.26 3.66561 11.9427 2.35291C10.6255 1.0402 8.83895 0.302734 6.97609 0.302734Z" fill="#777777"/>
</svg>
