<svg width="24" height="24" viewBox="0 0 24 24" fill="none" xmlns="http://www.w3.org/2000/svg">
<path d="M23.3448 7.32352C23.3317 6.33852 23.1473 5.36331 22.7999 4.44151C22.4986 3.66398 22.0385 2.95785 21.4488 2.36822C20.8592 1.77859 20.1531 1.31845 19.3755 1.01717C18.4656 0.675594 17.5043 0.490896 16.5325 0.470944C15.2814 0.415021 14.8847 0.399414 11.7088 0.399414C8.53288 0.399414 8.12581 0.399414 6.88379 0.470944C5.91249 0.491043 4.95163 0.675739 4.0421 1.01717C3.26445 1.31824 2.5582 1.77831 1.96855 2.36796C1.3789 2.95762 0.918822 3.66386 0.617759 4.44151C0.275496 5.35077 0.0911984 6.31184 0.0728306 7.2832C0.0169071 8.53563 0 8.9323 0 12.1082C0 15.2842 -9.68982e-09 15.6899 0.0728306 16.9333C0.0923388 17.9061 0.275716 18.8659 0.617759 19.7776C0.919327 20.555 1.37974 21.2609 1.96959 21.8503C2.55944 22.4397 3.26575 22.8996 4.0434 23.2006C4.95044 23.5559 5.91147 23.7538 6.88509 23.7858C8.13752 23.8418 8.53418 23.8587 11.7101 23.8587C14.8861 23.8587 15.2931 23.8587 16.5351 23.7858C17.5069 23.7667 18.4682 23.5824 19.3781 23.2409C20.1555 22.9393 20.8614 22.479 21.451 21.8894C22.0406 21.2999 22.5009 20.5939 22.8025 19.8166C23.1445 18.9062 23.3279 17.9464 23.3474 16.9723C23.4033 15.7211 23.4202 15.3245 23.4202 12.1472C23.4176 8.97131 23.4176 8.56814 23.3448 7.32352ZM11.701 18.1142C8.37942 18.1142 5.68859 15.4233 5.68859 12.1017C5.68859 8.78013 8.37942 6.0893 11.701 6.0893C13.2956 6.0893 14.8249 6.72275 15.9524 7.8503C17.08 8.97785 17.7134 10.5071 17.7134 12.1017C17.7134 13.6963 17.08 15.2256 15.9524 16.3532C14.8249 17.4807 13.2956 18.1142 11.701 18.1142ZM17.9527 7.2689C17.7686 7.26907 17.5862 7.23292 17.416 7.16253C17.2458 7.09213 17.0912 6.98887 16.961 6.85865C16.8308 6.72843 16.7275 6.5738 16.6571 6.40363C16.5867 6.23346 16.5506 6.05107 16.5507 5.86691C16.5507 5.68288 16.587 5.50066 16.6574 5.33064C16.7278 5.16062 16.8311 5.00614 16.9612 4.87601C17.0913 4.74589 17.2458 4.64267 17.4158 4.57224C17.5858 4.50182 17.7681 4.46557 17.9521 4.46557C18.1361 4.46557 18.3183 4.50182 18.4884 4.57224C18.6584 4.64267 18.8129 4.74589 18.943 4.87601C19.0731 5.00614 19.1763 5.16062 19.2468 5.33064C19.3172 5.50066 19.3534 5.68288 19.3534 5.86691C19.3534 6.64204 18.7266 7.2689 17.9527 7.2689Z" fill="#777777"/>
<path d="M11.7014 16.0064C13.8584 16.0064 15.607 14.2578 15.607 12.1009C15.607 9.94388 13.8584 8.19531 11.7014 8.19531C9.54447 8.19531 7.7959 9.94388 7.7959 12.1009C7.7959 14.2578 9.54447 16.0064 11.7014 16.0064Z" fill="#777777"/>
</svg>
