<svg width="24" height="24" viewBox="0 0 24 24" fill="none" xmlns="http://www.w3.org/2000/svg">
<path d="M0.419922 12.1289C0.419922 16.9319 3.30815 21.058 7.44108 22.8721C7.40809 22.0531 7.43522 21.0698 7.64525 20.1787C7.87077 19.2265 9.15452 13.7873 9.15452 13.7873C9.15452 13.7873 8.77981 13.0384 8.77981 11.9315C8.77981 10.1933 9.78727 8.89509 11.042 8.89509C12.1089 8.89509 12.6244 9.69645 12.6244 10.656C12.6244 11.7285 11.9403 13.3328 11.5885 14.8187C11.2946 16.0629 12.2124 17.0777 13.4398 17.0777C15.6622 17.0777 17.159 14.2234 17.159 10.8415C17.159 8.27078 15.4276 6.34663 12.2783 6.34663C8.72016 6.34663 6.50354 9.00002 6.50354 11.9639C6.50354 12.9858 6.80484 13.7064 7.27678 14.2645C7.49377 14.5208 7.52392 14.6239 7.44539 14.9182C7.38912 15.134 7.25992 15.6536 7.2064 15.8595C7.12832 16.1565 6.88759 16.2627 6.6191 16.1531C4.98025 15.484 4.21701 13.6894 4.21701 11.6719C4.21701 8.33997 7.02716 4.34468 12.6002 4.34468C17.0785 4.34468 20.026 7.58526 20.026 11.0638C20.026 15.6651 17.4679 19.1026 13.697 19.1026C12.4306 19.1026 11.2394 18.4181 10.8314 17.6406C10.8314 17.6406 10.1504 20.3431 10.0062 20.8649C9.75749 21.7693 9.27071 22.6732 8.82563 23.3777C9.9049 23.6968 11.0245 23.8588 12.15 23.8587C18.6273 23.8587 23.8792 18.6071 23.8792 12.1289C23.8792 5.65093 18.6273 0.399414 12.15 0.399414C5.67202 0.399414 0.419922 5.65093 0.419922 12.1289Z" fill="#777777"/>
</svg>
